# xmcd
#
# Track frame offsets:
# 150
# 12243
# 30327
# 39355
# 54485
# 73600
# 88535
# 95891
# 108040
# 126318
# 140071
# 145907
# 156356
# 176278
# 178981
# 191241
# 201746
# 220638
# 231895
# 241341
# 256650
# 268425
# 281855
# 298490
# 310861
#
# Disc length: 4276 seconds
#
#
# Revision: 0
# Processed by: cddbd v1.5.2PL0 Copyright (c) Steve Scherf et al.
# Submitted via: FreeRIP 2.945 
#
DISCID=8710b219
DTITLE=Herriot-J1992 - Every-Living-Thing05
DYEAR=1992
DGENRE=Jungle
TTITLE0=ELT 0501
TTITLE1=ELT 0502
TTITLE2=ELT 0503
TTITLE3=ELT 0504
TTITLE4=ELT 0505
TTITLE5=ELT 0506
TTITLE6=ELT 0507
TTITLE7=ELT 0508
TTITLE8=ELT 0509
TTITLE9=ELT 0510
TTITLE10=ELT 0511
TTITLE11=ELT 0512
TTITLE12=ELT 0513
TTITLE13=ELT 0514
TTITLE14=ELT 0515
TTITLE15=ELT 0516
TTITLE16=ELT 0517
TTITLE17=ELT 0518
TTITLE18=ELT 0519
TTITLE19=ELT 0520
TTITLE20=ELT 0521
TTITLE21=ELT 0522
TTITLE22=ELT 0523
TTITLE23=ELT 0524
TTITLE24=ELT 0525
EXTD=Every Living Thing by James Herriot 10 CDs\nread by Christopher Timothy BBC Audiobooks\njungle country
EXTT0=
EXTT1=
EXTT2=
EXTT3=
EXTT4=
EXTT5=
EXTT6=
EXTT7=
EXTT8=
EXTT9=
EXTT10=
EXTT11=
EXTT12=
EXTT13=
EXTT14=
EXTT15=
EXTT16=
EXTT17=
EXTT18=
EXTT19=
EXTT20=
EXTT21=
EXTT22=
EXTT23=
EXTT24=
PLAYORDER=
